<?xml version="1.0" encoding="UTF-8"?>
<svg id="Layer_1" xmlns="http://www.w3.org/2000/svg" version="1.1" viewBox="0 0 500 155.9">
  <defs>
    <style>
      .st0 {
        fill: #fff;
      }

      .st1 {
        fill: #7567ce;
      }
    </style>
  </defs>
  <path class="st1" d="M2.4,78C2.4,36.7,35.8,3.2,77.1,3.2s74.7,33.5,74.7,74.7-33.5,74.7-74.7,74.7S2.4,119.2,2.4,78Z"/>
  <path class="st0" d="M70.1,37.1c-28,0-39.7,12-39.7,28v25.7c0,16,11.7,28,39.7,28h27.1c25.4,0,26.6-3.1,26.6-8.2s-2.3-8.2-8.2-8.2h-45.5c-14,0-21-7-21-14v-2.3h66.5c4.7,0,8.2-3.1,8.2-8.2s-3.5-8.2-8.2-8.2H49.1v-2.3c0-7,7-14,21-14h45.5c5.8,0,8.2-2.3,8.2-8.2s-1.2-8.2-26.6-8.2h-27.1Z"/>
  <path class="st1" d="M408.5,47.3c-3.1,0-4.5,1.6-4.5,5.1v51.1c0,3.5,1.4,5.1,4.5,5.1h5.1c3.1,0,4.5-1.6,4.5-5.1v-51.1c0-3.5-1.4-5.1-4.5-5.1h-5.1Z"/>
  <path class="st1" d="M303.7,103.2c3.8,4.8,8.1,5.4,12.9,5.4h3.6c5.3,0,6.7-4.2,6.7-6.7v-49.5c0-3.5-1.4-5.1-4.5-5.1h-5.1c-3.1,0-4.5,1.6-4.5,5.1v40.2l-30.5-39.9c-3.8-4.8-8.1-5.4-12.9-5.4h-3.6c-5.3,0-6.7,4.1-6.7,6.7v49.5c0,3.5,1.4,5.1,4.5,5.1h5.1c3.1,0,4.5-1.6,4.5-5.1v-40.2l30.5,39.9Z"/>
  <path class="st1" d="M474.2,103.2c3.8,4.8,8.1,5.4,12.9,5.4h3.6c5.3,0,6.7-4.2,6.7-6.7v-49.5c0-3.5-1.4-5.1-4.5-5.1h-5.1c-3.1,0-4.5,1.6-4.5,5.1v40.2l-30.5-39.9c-3.8-4.8-8.1-5.4-12.9-5.4h-3.6c-5.3,0-6.7,4.1-6.7,6.7v49.5c0,3.5,1.4,5.1,4.5,5.1h5.1c3.1,0,4.5-1.6,4.5-5.1v-40.2l30.5,39.9Z"/>
  <path class="st1" d="M209.6,47.3c-21,0-29.8,9-29.8,21v19.3c0,12,8.8,21,29.8,21h20.4c19,0,19.9-2.3,19.9-6.1s-1.8-6.1-6.1-6.1h-34.1c-10.5,0-15.8-5.2-15.8-10.5v-1.8h49.9c3.5,0,6.1-2.3,6.1-6.1s-2.6-6.1-6.1-6.1h-49.9v-1.8c0-5.3,5.3-10.5,15.8-10.5h34.1c4.4,0,6.1-1.8,6.1-6.1s-.9-6.1-19.9-6.1h-20.4Z"/>
  <path class="st1" d="M378.3,85.3v-32.9c0-3.5,1.4-5.1,4.5-5.1h5.1c3.1,0,4.5,1.6,4.5,5.1v34.4c0,12-8.6,21.8-19.3,21.8h-16.8c-19,0-19.9-2.3-19.9-6.1s1.8-6.1,6.1-6.1h27.1c4.7,0,8.8-5.7,8.8-11Z"/>
</svg>